<svg style="transform: scale(1.01)" xmlns="http://www.w3.org/2000/svg" version="1.1" width="464px" height="128px" viewBox="0 0 928 256">
<style type="text/css">


	.gray line, .gray path{fill:none;stroke:#aaa;stroke-width:16;stroke-linecap:round;stroke-linejoin:round;stroke-miterlimit:10;}

	.color {
		transform: scale(2) translateX(9px);
		animation: op ease 5.25s 2s;
	}

	.ttmain {
		    stroke-dasharray: 410 1000;
    		stroke-dashoffset: 78;
		animation: ttmain 2.5s cubic-bezier(.5, 0.25, 0.25, 1) forwards 4.55s;
	}

	.gray line {
		stroke-dasharray: 92;
		transform: translate(-27.5px, 0px);
		animation: line .5s cubic-bezier(0.25, 0.1, 0.96, 0.31)  forwards 4s;
	}

	.gray .g {
		stroke-dasharray: 92;
		transform: translate(-27.5px, 0px);
		animation: line .5s cubic-bezier(0.25, 0.1, 0.27, 1.41) forwards 4s;
	}
	
	.gray g {
		animation: move .5s cubic-bezier(0.25, 0.1, 0.27, 2) forwards 4s;
	}

	@keyframes op {
		25% { opacity: 1;  }
		30% { opacity: 0;  }
		98% { opacity: 0;  }
		100% { opacity: 1;  }
	}

	@keyframes line {
		100% { stroke-dashoffset: 92;  }
	}

	@keyframes move {
		100% { transform: translate(16px, 0px);  }
	}

	@keyframes ttmain {
		20% {
		    stroke-dasharray: 100 1000;}
		40% { stroke-dasharray: 410 1000; stroke-dashoffset: -560; }
		70% { stroke-dasharray: 410 1000; stroke-dashoffset: -560; }
		100% {  }
	}

	
	.st0{opacity:0.75;enable-background:new    ;}
	.st1{fill:none;stroke:url(#SVGID_1_);stroke-width:7.9857;stroke-linecap:round;stroke-linejoin:round;}
	.st2{fill:none;stroke:url(#SVGID_2_);stroke-width:7.9857;stroke-linecap:round;stroke-linejoin:round;}
	.st3{fill:none;stroke:url(#SVGID_3_);stroke-width:7.9857;stroke-linecap:round;stroke-linejoin:round;}
	.st4{fill:none;stroke:url(#SVGID_4_);stroke-width:7.9857;stroke-linecap:round;stroke-linejoin:round;}
	.st5{fill:none;stroke:url(#SVGID_5_);stroke-width:7.9857;stroke-linecap:round;stroke-linejoin:round;}
	.st6{fill:none;stroke:url(#SVGID_6_);stroke-width:7.9857;stroke-linecap:round;stroke-linejoin:round;}
	.st7{fill:none;stroke:url(#SVGID_7_);stroke-width:7.9857;stroke-linecap:round;stroke-linejoin:round;}
	.st8{fill:#FFFFFF;stroke:#000000;stroke-miterlimit:10;}
	.st9{fill:none;stroke:url(#SVGID_8_);stroke-width:7.9857;stroke-linecap:round;stroke-linejoin:round;}
	.st10{fill:none;stroke:url(#SVGID_9_);stroke-width:7.9857;stroke-linecap:round;stroke-linejoin:round;}
	.st11{fill:none;stroke:url(#SVGID_10_);stroke-width:7.9857;stroke-linecap:round;stroke-linejoin:round;}
	.st12{fill:none;stroke:url(#SVGID_11_);stroke-width:7.9857;stroke-linecap:round;stroke-linejoin:round;}
	.st13{fill:none;stroke:url(#SVGID_12_);stroke-width:7.9857;stroke-linecap:round;stroke-linejoin:round;}
	.st14{fill:none;stroke:url(#SVGID_13_);stroke-width:7.9857;stroke-linecap:round;stroke-linejoin:round;}
	.st15{fill:none;stroke:url(#SVGID_14_);stroke-width:7.9857;stroke-linecap:round;stroke-linejoin:round;}
</style>
<g class="gray">
	
	<g style="animation-delay:4.2s">
		<line style="animation-delay:4.2s" x1="88.491" y1="160.27" x2="144.491" y2="160.27"/>
	</g>
			<g style="animation-delay:4.1s ">
		<line style="animation-delay:4.1s " x1="88.491" y1="128.27" x2="144.491" y2="128.27"/>
	</g>
			<g>
		<line x1="88.491" y1="96.27" x2="144.491" y2="96.27"/>
	</g>
	<path class="g" d="M104.491,192.27v-16c0-8.837,7.163-16,16-16l33,0"/>
	<path  class="g" d="M104.491,160.27v-16c0-8.837,7.163-16,16-16l33,0"/>
	<path  class="g" d="M104.491,128.27v-16c0-8.837,7.163-16,16-16l33,0"/>

	<path class="ttmain" d="M108.166,192.27h33c8.837,0,16-7.163,16-16v-80c0-8.837-7.163-16-16-16h-48c-8.837,0-16,7.163-16,16   c0,32,0,64,0,96c-0.193,1.739-0.325,4.19,0,7.074c1.483,13.144,11.384,25.649,24.226,31.133c16.072,6.864,34.357,1.71,45.757-9.199   c13.88-13.283,13.353-31.081,13.218-34.013c-0.116-2.519-1.416-22.91-19.497-35.115c-18.54-12.515-38.522-5.487-40.467-4.765   c-0.748,0.278-1.261,0.64-1.728,0.895c-2.793,1.532-15.473,8.878-20.221,23.892c-0.497,1.57-1.958,6.316-1.779,11.827   c0.516,15.807,14.605,40,40,40c21.937,0,40-18.053,40-40c0-21.943-18.057-40-40-40c0-19.667,0-39.333,0-59c-8,0-16,0-24,0   c14.491,0,14.491,0,24,0c0-10.4,0-26.6,0-37c-12.9,0-25.8,0-38.7,0"/>

</g>

<g class="color">
	<path d="M124.854,75.97h-10.611l-2.024,4.895h-5.418l10.182-22.851h5.227l10.22,22.851h-5.55L124.854,75.97z M123.189,71.953
		l-3.624-8.748l-3.624,8.748H123.189z"/>
	<path d="M149.979,59.026c2.92,1.214,4.776,4.118,4.652,7.279c0.038,1.55-0.379,3.076-1.198,4.392
		c-0.841,1.279-2.043,2.279-3.454,2.873c-1.668,0.699-3.464,1.039-5.273,0.998h-4.608v6.301h-5.293V58.014h9.892
		C146.511,57.971,148.312,58.316,149.979,59.026z M148.037,69.228c0.845-0.729,1.303-1.809,1.24-2.923
		c0.068-1.124-0.39-2.216-1.24-2.955c-1.052-0.754-2.333-1.117-3.624-1.028h-4.314v7.934h4.31c1.291,0.089,2.572-0.275,3.624-1.028
		H148.037z"/>
	<path d="M162.495,62.322h-7.313v-4.308h19.914v4.308h-7.313v18.543h-5.289V62.322z"/>
	<path d="M191.904,62.322h-7.313v-4.308h19.914v4.308h-7.313v18.543h-5.289V62.322z"/>
	<path class="st0" d="M206.86,60.039c-1.118-1.042-1.18-2.793-0.138-3.911c0.044-0.048,0.09-0.094,0.138-0.138
		c0.627-0.559,1.447-0.852,2.286-0.817c0.833-0.035,1.649,0.244,2.286,0.783c0.572,0.489,0.895,1.208,0.88,1.96
		c0.022,0.796-0.299,1.563-0.88,2.106C210.108,61.122,208.191,61.128,206.86,60.039z M206.6,63.303h5.091v17.569H206.6V63.303z"/>
	<path class="st0" d="M244.159,64.984c1.405,1.602,2.105,3.703,1.943,5.828v10.054h-5.085v-9.271
		c0.084-1.108-0.222-2.211-0.866-3.116c-0.618-0.705-1.527-1.086-2.464-1.03c-1.072-0.052-2.112,0.373-2.841,1.16
		c-0.764,0.978-1.136,2.206-1.044,3.444v8.814h-5.093v-9.271c0-2.763-1.11-4.145-3.33-4.147c-1.061-0.047-2.089,0.377-2.807,1.16
		c-0.765,0.978-1.138,2.206-1.046,3.444v8.814h-5.091V63.297h4.863v2.024c0.657-0.743,1.477-1.325,2.396-1.699
		c0.99-0.399,2.049-0.599,3.116-0.587c1.163-0.017,2.314,0.234,3.364,0.735c0.986,0.477,1.822,1.217,2.416,2.138
		c0.723-0.918,1.658-1.646,2.725-2.122c1.134-0.508,2.365-0.764,3.608-0.751C240.861,62.939,242.754,63.644,244.159,64.984z"/>
	<path class="st0" d="M267.968,73.52h-13.286c0.212,1.047,0.82,1.971,1.697,2.579c0.983,0.658,2.148,0.989,3.33,0.946
		c0.829,0.017,1.654-0.118,2.434-0.399c0.738-0.293,1.409-0.732,1.974-1.29l2.709,2.939c-1.87,1.979-4.527,3.017-7.243,2.831
		c-1.819,0.037-3.621-0.36-5.257-1.158c-1.458-0.713-2.682-1.829-3.526-3.216c-0.837-1.411-1.267-3.027-1.24-4.668
		c-0.023-1.634,0.4-3.243,1.224-4.654c0.801-1.367,1.965-2.486,3.362-3.232c1.474-0.784,3.122-1.182,4.791-1.158
		c1.624-0.023,3.228,0.358,4.668,1.11c1.377,0.724,2.516,1.829,3.282,3.182c0.818,1.471,1.231,3.133,1.198,4.815
		C268.077,72.215,268.037,72.673,267.968,73.52z M256.054,67.872c-0.799,0.679-1.313,1.636-1.437,2.677h8.653
		c-0.134-1.034-0.646-1.982-1.437-2.661c-0.804-0.672-1.826-1.027-2.873-0.998c-1.053-0.031-2.083,0.317-2.901,0.982H256.054z"/>
	<path d="M273.49,62.322h-7.319v-4.308h19.914v4.308h-7.313v18.543h-5.289L273.49,62.322z"/>
	<path class="st0" d="M301.043,64.984c1.559,1.534,2.363,3.678,2.196,5.86v10.022h-4.767v-2.186
		c-1.188,1.75-3.252,2.693-5.352,2.448c-1.206,0.029-2.403-0.204-3.51-0.685c-0.923-0.4-1.71-1.058-2.268-1.895
		c-0.526-0.816-0.799-1.77-0.785-2.741c-0.059-1.51,0.631-2.952,1.845-3.853c1.701-1.061,3.697-1.55,5.696-1.398h4.049
		c0.06-0.962-0.311-1.902-1.012-2.563c-0.869-0.66-1.949-0.978-3.037-0.896c-0.936,0-1.867,0.148-2.757,0.439
		c-0.833,0.259-1.612,0.664-2.302,1.198l-1.829-3.558c1.049-0.717,2.214-1.247,3.444-1.567c1.346-0.371,2.735-0.557,4.131-0.555
		C297.037,62.901,299.267,63.589,301.043,64.984z M296.703,77.096c0.675-0.405,1.183-1.036,1.435-1.781v-1.797h-3.494
		c-2.088,0-3.133,0.685-3.134,2.056c-0.02,0.613,0.269,1.196,0.769,1.551c0.621,0.413,1.36,0.613,2.104,0.571
		C295.197,77.713,295.999,77.505,296.703,77.096z"/>
	<path class="st0" d="M322.67,64.167c1.326,0.739,2.418,1.837,3.15,3.166c1.523,2.984,1.523,6.517,0,9.501
		c-0.733,1.33-1.824,2.427-3.15,3.166c-1.362,0.756-2.898,1.145-4.456,1.126c-2.095,0.137-4.134-0.708-5.518-2.286v2.024h-4.863
		V56.643h5.091v8.513c1.367-1.449,3.301-2.225,5.291-2.122C319.773,63.017,321.309,63.408,322.67,64.167z M320.548,75.627
		c1.674-2.065,1.674-5.02,0-7.085c-1.782-1.762-4.651-1.762-6.432,0c-1.674,2.065-1.674,5.02,0,7.085
		C315.898,77.389,318.766,77.389,320.548,75.627z"/>
	<path class="st0" d="M330.359,56.643h5.089v24.223h-5.093L330.359,56.643z"/>
	<path class="st0" d="M357.292,73.52h-13.288c0.212,1.047,0.821,1.971,1.699,2.579c0.983,0.658,2.148,0.989,3.33,0.946
		c0.828,0.017,1.652-0.118,2.432-0.399c0.738-0.293,1.409-0.732,1.974-1.29l2.711,2.939c-1.87,1.983-4.53,3.024-7.249,2.839
		c-1.819,0.037-3.62-0.36-5.255-1.158c-1.459-0.713-2.683-1.829-3.526-3.216c-0.839-1.411-1.269-3.027-1.242-4.668
		c-0.022-1.634,0.401-3.242,1.224-4.654c0.801-1.367,1.966-2.486,3.364-3.232c2.961-1.527,6.474-1.546,9.451-0.05
		c1.376,0.725,2.514,1.829,3.28,3.182c0.819,1.471,1.232,3.132,1.198,4.815C357.392,72.217,357.358,72.673,357.292,73.52z
		 M345.376,67.872c-0.798,0.68-1.311,1.636-1.435,2.677h8.651c-0.133-1.034-0.644-1.982-1.435-2.661
		c-0.804-0.671-1.826-1.026-2.873-0.998C347.227,66.858,346.195,67.206,345.376,67.872L345.376,67.872z"/>
	
		<linearGradient id="SVGID_1_" gradientUnits="userSpaceOnUse" x1="19.6095" y1="42.0143" x2="51.794" y2="53.7286" gradientTransform="matrix(1 0 0 -1 0 128)">
		<stop  offset="0" style="stop-color:#1F40AE"/>
		<stop  offset="0.169" style="stop-color:#3C5CC4"/>
		<stop  offset="0.407" style="stop-color:#5F7DDD"/>
		<stop  offset="0.632" style="stop-color:#7895F0"/>
		<stop  offset="0.835" style="stop-color:#88A3FB"/>
		<stop  offset="1" style="stop-color:#8DA8FF"/>
	</linearGradient>
	<line class="st1" x1="21.727" y1="80.129" x2="49.677" y2="80.129"/>
	
		<linearGradient id="SVGID_2_" gradientUnits="userSpaceOnUse" x1="19.6095" y1="57.9857" x2="51.794" y2="69.7" gradientTransform="matrix(1 0 0 -1 0 128)">
		<stop  offset="0" style="stop-color:#1F40AE"/>
		<stop  offset="0.169" style="stop-color:#3C5CC4"/>
		<stop  offset="0.407" style="stop-color:#5F7DDD"/>
		<stop  offset="0.632" style="stop-color:#7895F0"/>
		<stop  offset="0.835" style="stop-color:#88A3FB"/>
		<stop  offset="1" style="stop-color:#8DA8FF"/>
	</linearGradient>
	<line class="st2" x1="21.727" y1="64.157" x2="49.677" y2="64.157"/>
	
		<linearGradient id="SVGID_3_" gradientUnits="userSpaceOnUse" x1="19.6095" y1="73.9571" x2="51.794" y2="85.6715" gradientTransform="matrix(1 0 0 -1 0 128)">
		<stop  offset="0" style="stop-color:#1F40AE"/>
		<stop  offset="0.169" style="stop-color:#3C5CC4"/>
		<stop  offset="0.407" style="stop-color:#5F7DDD"/>
		<stop  offset="0.632" style="stop-color:#7895F0"/>
		<stop  offset="0.835" style="stop-color:#88A3FB"/>
		<stop  offset="1" style="stop-color:#8DA8FF"/>
	</linearGradient>
	<line class="st3" x1="21.727" y1="48.186" x2="49.677" y2="48.186"/>
	
		<linearGradient id="SVGID_4_" gradientUnits="userSpaceOnUse" x1="29.5793" y1="52.5348" x2="77.9287" y2="70.1333" gradientTransform="matrix(1 0 0 -1 0 128)">
		<stop  offset="0" style="stop-color:#1F40AE"/>
		<stop  offset="0.169" style="stop-color:#3C5CC4"/>
		<stop  offset="0.407" style="stop-color:#5F7DDD"/>
		<stop  offset="0.632" style="stop-color:#7895F0"/>
		<stop  offset="0.835" style="stop-color:#88A3FB"/>
		<stop  offset="1" style="stop-color:#8DA8FF"/>
	</linearGradient>
	<path class="st4" d="M45.185,96.1h16.471c4.41,0,7.986-3.575,7.986-7.986V48.186c0-4.41-3.575-7.986-7.986-7.986H37.698
		c-4.41,0-7.986,3.575-7.986,7.986v15.971"/>
	
		<linearGradient id="SVGID_5_" gradientUnits="userSpaceOnUse" x1="22.4948" y1="64.0127" x2="59.294" y2="77.4071" gradientTransform="matrix(1 0 0 -1 0 128)">
		<stop  offset="0" style="stop-color:#1F40AE"/>
		<stop  offset="0.169" style="stop-color:#3C5CC4"/>
		<stop  offset="0.407" style="stop-color:#5F7DDD"/>
		<stop  offset="0.632" style="stop-color:#7895F0"/>
		<stop  offset="0.835" style="stop-color:#88A3FB"/>
		<stop  offset="1" style="stop-color:#8DA8FF"/>
	</linearGradient>
	<path class="st5" d="M54.169,48.186H37.698c-4.41,0-7.986,3.575-7.986,7.986v15.971"/>
	
		<linearGradient id="SVGID_6_" gradientUnits="userSpaceOnUse" x1="22.4948" y1="48.0412" x2="59.294" y2="61.4357" gradientTransform="matrix(1 0 0 -1 0 128)">
		<stop  offset="0" style="stop-color:#1F40AE"/>
		<stop  offset="0.169" style="stop-color:#3C5CC4"/>
		<stop  offset="0.407" style="stop-color:#5F7DDD"/>
		<stop  offset="0.632" style="stop-color:#7895F0"/>
		<stop  offset="0.835" style="stop-color:#88A3FB"/>
		<stop  offset="1" style="stop-color:#8DA8FF"/>
	</linearGradient>
	<path class="st6" d="M54.169,64.157H37.698c-4.41,0-7.986,3.575-7.986,7.986v15.971"/>
	
		<linearGradient id="SVGID_7_" gradientUnits="userSpaceOnUse" x1="23.7781" y1="36.5297" x2="58.0107" y2="48.9901" gradientTransform="matrix(1 0 0 -1 0 128)">
		<stop  offset="0" style="stop-color:#1F40AE"/>
		<stop  offset="0.169" style="stop-color:#3C5CC4"/>
		<stop  offset="0.407" style="stop-color:#5F7DDD"/>
		<stop  offset="0.632" style="stop-color:#7895F0"/>
		<stop  offset="0.835" style="stop-color:#88A3FB"/>
		<stop  offset="1" style="stop-color:#8DA8FF"/>
	</linearGradient>
	<path class="st7" d="M29.712,96.1v-7.986c0-4.41,3.575-7.986,7.986-7.986h16.471"/>
</g>

</svg>