<svg xmlns="http://www.w3.org/2000/svg" width="24px" height="24px" viewBox="0 0 24 24"><defs><style>.a{fill:none;stroke:#000;stroke-linecap:round;stroke-linejoin:round;stroke-width:2px;}</style></defs><path d="M21.07,8.58l-5.55,5.56a2.037,2.037,0,0,0-1.04,0l-2.55-2.55a2,2,0,1,0-3.86,0L3.51,16.14a2,2,0,1,0,1.42,1.42L9.48,13a2.037,2.037,0,0,0,1.04,0l2.55,2.55a2,2,0,1,0,3.86,0L22.49,10C23.56,10.33,20.74,7.51,21.07,8.58Z"/><polygon points="15 9.07 15.94 7 18 6.07 15.94 5.14 15 3.07 14.08 5.14 12 6.07 14.08 7 15 9.07"/><polygon points="3.5 11.07 4 9.07 6 8.57 4 8.07 3.5 6.07 3 8.07 1 8.57 3 9.07 3.5 11.07"/><polyline class="a" points="22 14 22 9 17 9"/></svg>