<?xml version="1.0" encoding="utf-8"?>
<!-- Generator: Adobe Illustrator 25.2.3, SVG Export Plug-In . SVG Version: 6.00 Build 0)  -->
<svg version="1.1" id="Слой_1" xmlns="http://www.w3.org/2000/svg" xmlns:xlink="http://www.w3.org/1999/xlink" x="0px" y="0px"
	 width="128px" height="128px" viewBox="0 0 128 128" style="enable-background:new 0 0 128 128;" xml:space="preserve">
<style type="text/css">
	.st0{fill:none;stroke:#00000005;stroke-width:1.5;stroke-linecap:round;stroke-linejoin:round;stroke-miterlimit:10;}
	.st1{fill:none;stroke:#00000005;stroke-miterlimit:10;}
</style>
<path class="st0" d="M8.497,38.832c0,0,7.301-11.077,7.678-11.455s18,20.517,18,20.517l12.462-37.007l3.776,10.196l-14.727-3.65
	l11.203-7.427"/>
<path class="st0" d="M3.776,64.951c0,0,3.21,6.923,2.643,9.629c-0.566,2.706,8.119-1.888,8.119-1.888l-3.65-11.266
	c0,0-3.084,2.329-5.601,2.958c-2.517,0.629-1.51,0.944-1.51,0.944"/>
<path class="st0" d="M6.105,66.21c0.555,0.004,1.483-0.062,2.517-0.504c0.809-0.345,1.392-0.796,1.762-1.133"/>
<path class="st0" d="M6.923,68.287c0.457,0.051,1.234,0.079,2.14-0.189c0.858-0.253,1.471-0.665,1.825-0.944"/>
<path class="st0" d="M7.741,70.741c0.349,0.041,1.005,0.072,1.762-0.189c0.809-0.279,1.327-0.75,1.573-1.007"/>
<path class="st0" d="M11.266,72.629c0.059-0.001,0.705-0.02,1.07-0.566c0.275-0.411,0.207-0.847,0.189-0.944"/>
<path class="st0" d="M29.895,56.706c5.673-2.002,11.739,0.297,14.224,4.909c3.179,5.901-0.315,14.08-6.294,15.734
	c-4.743,1.312-10.162-1.728-11.832-5.664c-2.29-5.398,1.765-14.15,11.58-18"/>
<path class="st0" d="M30.524,78.986c-3.794,0.396-6.303,2.465-7.552,3.524c-6.096,5.168-6.499,13.093-6.545,14.979
	c2.547-0.708,6.667-1.514,11.706-1.007c5.819,0.585,10.17,2.65,12.587,4.028c4.366-5.159,4.664-12.271,1.133-16.867
	C39.129,80.098,34.525,78.569,30.524,78.986z"/>
<path class="st0" d="M45.784,46.509c1.377-4.92,6.001-7.92,10.501-7.28c5.756,0.819,9.839,7.387,8.064,12.34
	c-1.408,3.929-6.239,6.107-9.857,5.251c-4.961-1.174-9.173-8.419-7.064-17.128"/>
<path class="st0" d="M61.909,57.422c-1.591,2.81-1.359,5.589-1.224,6.988c0.661,6.823,6.087,11.136,7.403,12.128
	c0.754-2.112,2.214-5.355,5.06-8.562c3.286-3.703,6.897-5.643,9.068-6.604c-1.508-5.629-6.41-9.456-11.413-9.368
	C66.943,52.072,63.586,54.459,61.909,57.422z"/>
<path class="st0" d="M30.608,70.133c0.441,1.696,1.867,2.949,3.566,3.147c1.559,0.182,3.106-0.552,3.986-1.888"/>
<path class="st0" d="M33.336,61.783c-0.126,0.881-0.252,1.762-0.378,2.643"/>
<path class="st0" d="M37.531,62.58c-0.112,0.657-0.224,1.315-0.336,1.972"/>
<path class="st0" d="M56.389,53.347c1.41-2.895,2.82-5.789,4.23-8.684"/>
<path class="st0" d="M48.727,45.7c0.745,0.679,1.49,1.357,2.235,2.036"/>
<path class="st0" d="M51.001,43.464c0.527,0.581,1.054,1.162,1.581,1.743"/>
<path class="st0" d="M63.976,29.62c6.759,6.755,13.036,9.342,17.559,10.448c10.805,2.642,17.258-1.786,29.077,0.944
	c6.997,1.616,12.26,4.905,15.608,7.427"/>
<path class="st0" d="M89.622,4.469c0.333,0.42,1.121,1.295,2.455,1.825c1.258,0.5,2.365,0.441,2.895,0.378
	c-3.608,7.909-7.217,15.818-10.825,23.727c-1.573,1.385-3.147,2.769-4.72,4.154c-0.357-1.406-0.713-2.811-1.07-4.217
	C82.112,21.713,85.867,13.091,89.622,4.469z"/>
<path class="st0" d="M92.203,4.531c0.42,0.231,0.839,0.462,1.259,0.692"/>
<path class="st0" d="M89.811,3.462c0.163-0.078,2.179-1.003,4.028,0.126c1.135,0.693,1.57,1.771,1.699,2.14"/>
<path class="st0" d="M90.378,7.049c-3.231,7.531-6.462,15.063-9.692,22.594"/>
<path class="st0" d="M91.951,8.119c-3.063,7.112-6.126,14.224-9.189,21.336"/>
<path class="st0" d="M79.615,31.091c0.357,0.126,0.713,0.252,1.07,0.378"/>
<path class="st0" d="M66.524,88.93c4.222,1.481,9.59,3.843,15.231,7.678c4.119,2.8,7.404,5.72,9.944,8.308
	c-0.647,0.279-1.585,0.773-2.517,1.636c-1.093,1.012-1.697,2.086-2.014,2.769c-3.107-2.84-6.909-5.929-11.455-8.937
	c-3.743-2.477-7.324-4.457-10.573-6.042c0.361-0.544,0.835-1.392,1.133-2.517C66.59,90.628,66.582,89.599,66.524,88.93z"/>
<path class="st0" d="M67.335,94.004c-0.498-0.81,0.228-2.237,1.219-2.51c0.744-0.205,1.689,0.226,1.723,0.637
	c0.027,0.323-0.511,0.648-0.913,0.755c-0.746,0.2-1.377-0.255-1.479-0.33c0.299,0.241,1.766,1.441,1.526,1.888
	C69.213,94.815,67.796,94.755,67.335,94.004z"/>
<path class="st0" d="M73.465,97.397c-0.498-0.81,0.228-2.237,1.219-2.51c0.744-0.205,1.689,0.226,1.723,0.637
	c0.027,0.323-0.511,0.648-0.913,0.755c-0.746,0.2-1.377-0.255-1.479-0.33c0.299,0.241,1.766,1.441,1.526,1.888
	C75.343,98.207,73.926,98.147,73.465,97.397z"/>
<path class="st0" d="M70.584,93.923c0.593,0.954,1.492,1.27,1.92,1.007c0.481-0.296,0.562-1.444,0.042-1.804
	c-0.468-0.324-1.212,0.135-1.28,0.178c-0.752,0.476-1.375,1.703-0.787,2.601c0.378,0.578,1.154,0.861,1.941,0.713"/>
<path class="st0" d="M78.136,99.645c-0.173-0.771-0.346-1.542-0.519-2.313c0.753,0.82,1.605,1.04,1.951,0.755
	c0.33-0.271,0.295-1.08-0.126-1.495c-0.507-0.5-1.369-0.226-1.747-0.031c-0.825,0.426-1.275,1.486-1.196,2.691"/>
<path class="st0" d="M83.234,100.054c-0.323-0.771-1.003-1.28-1.715-1.274c-0.744,0.005-1.229,0.57-1.416,0.787
	c-0.14,0.163-0.839,0.975-0.535,1.652c0.233,0.52,0.947,0.717,1.463,0.708c1.588-0.028,2.75-2.042,2.785-2.014
	c0.019,0.015-0.385,0.575-2.171,2.879"/>
<path class="st0" d="M13.849,123.345c0.022,0.015,1.373-1.224,1.112-2.45c-0.22-1.038,0.589-0.45-2.071-1.958
	c-1.306-0.741-2.338-1.409-3.006-1.858c-1.802-1.441-2.073-4.089-0.668-5.818c1.452-1.786,4.22-2.008,5.982-0.401
	c0.687,0.514,1.668,1.226,2.88,2.032c2.76,1.836,1.451,1.075,2.065,0.875c1.092-0.354,1.555-1.837,1.482-1.882
	C21.403,111.751,13.788,123.303,13.849,123.345z"/>
<path class="st0" d="M18.482,119.836c0.039,0.026,0.993,0.644,1.845,0.223c0.821-0.405,1.237-1.62,0.701-2.74"/>
<path class="st0" d="M7.608,111.359c-0.302-0.208-0.532-0.481-0.48-0.685c0.066-0.26,0.602-0.455,1.326-0.297"/>
<path class="st0" d="M51.793,98.627c-1.022,4.652-2.044,9.304-3.066,13.956c1.918-0.09,4.451,0.011,7.321,0.745
	c2.938,0.752,5.282,1.925,6.97,2.958c1.206-5.498,2.413-10.996,3.619-16.494C61.689,99.404,56.741,99.015,51.793,98.627z"/>
<path class="st0" d="M51.88,100.909"/>
<path class="st0" d="M66.94,103.54c-5.518-1.096-11.036-2.191-16.554-3.287"/>
<path class="st0" d="M52.537,102.744c-0.115,1.036-0.229,2.072-0.344,3.109c0.588,0.073,1.175,0.147,1.762,0.22
	c0.332-0.624,0.664-1.247,0.996-1.871C54.147,103.716,53.342,103.23,52.537,102.744z"/>
<path class="st0" d="M54.593,94.834c-0.129,1.233-0.259,2.466-0.388,3.698"/>
<path class="st0" d="M63.503,95.952c-0.226,1.317-0.452,2.634-0.678,3.951"/>
<path class="st0" d="M74.928,87.254c10.3-2.01,20.6-4.02,30.901-6.031c2.002-0.398,3.416-2.085,3.444-3.881
	c0.034-2.19-1.998-4.236-4.555-4.098c-3.538,1.492-6.478,2.232-8.378,2.625c-14.405,2.98-20.049,3.606-20.049,3.606
	c-0.454,0.05-1.451,0.155-1.893,0.866c-0.696,1.119,0.805,2.417,0.41,4.072c-0.504,2.108-3.612,2.826-3.464,3.249
	C71.407,87.846,72.066,87.91,74.928,87.254z"/>
<g>
	<path class="st0" d="M91.535,75.175c1.954-0.174,4.486-0.632,7.339-2.147c1.714-0.91,2.878-1.836,3.997-2.438
		c-1.937-0.341-4.751-0.969-8.123-2.228c-2.59-0.041-4.561,2.081-4.438,4.268C90.364,73.584,90.82,74.485,91.535,75.175z"/>
	<path class="st0" d="M125.427,78.392c-0.466-1.64,0.998-2.993,0.25-4.085c-0.476-0.694-1.487-0.76-1.948-0.794
		c0,0-4.255-0.309-14.776-1.941c0.696,0.646,1.259,1.408,1.628,2.169c0.793,1.636,0.874,3.557,0.462,5.276
		c4.792,0.74,9.583,1.479,14.375,2.219c2.919,0.547,3.583,0.458,3.641,0.272C129.191,81.08,126.021,80.48,125.427,78.392z"/>
</g>
<path class="st0" d="M8.916,83.811c0.031,0.005,0.073,1.547-0.671,1.972c-0.64,0.366-1.642-0.219-1.678-0.126
	c-0.031,0.079,0.8,0.259,1.217,0.881c0.604,0.902,0.083,2.355,0.042,2.35c-0.043-0.006-0.191-1.63,0.573-2.172
	c0.818-0.58,2.447,0.246,2.448,0.242c0.001-0.003-1.497-0.122-2.014-1.007C8.338,85.104,8.886,83.806,8.916,83.811z"/>
<path class="st0" d="M52.807,29.636c0.019,0.025-1.025,1.16-1.856,0.947c-0.714-0.184-1.026-1.301-1.116-1.26
	c-0.078,0.035,0.393,0.743,0.259,1.48c-0.195,1.068-1.581,1.747-1.607,1.715c-0.027-0.034,0.999-1.303,1.925-1.159
	c0.991,0.154,1.584,1.881,1.587,1.879c0.003-0.002-0.989-1.131-0.743-2.126C51.491,30.16,52.789,29.611,52.807,29.636z"/>
<path class="st0" d="M26.215,27.728c0.016-0.027,1.474,0.473,1.613,1.319c0.119,0.727-0.779,1.462-0.705,1.528
	c0.064,0.057,0.522-0.659,1.251-0.832c1.057-0.251,2.236,0.745,2.216,0.782c-0.02,0.038-1.594-0.391-1.835-1.297
	c-0.257-0.969,1.086-2.206,1.083-2.208c-0.003-0.002-0.638,1.36-1.648,1.535C27.225,28.722,26.2,27.754,26.215,27.728z"/>
<path class="st0" d="M52.846,79.28c-0.832-0.483-2.269-0.2-2.861,0.577c-1.102,1.447,0.902,4.368,1.309,4.961
	c1.209,1.762,2.745,2.718,3.65,3.189c0.785-0.963,1.832-2.473,2.559-4.531c0.642-1.816,1.326-3.751,0.378-4.741
	c-0.891-0.93-2.999-0.793-3.608,0.084c-0.439,0.631-0.077,1.61-0.32,1.678C53.727,80.56,53.537,79.68,52.846,79.28z"/>
<path class="st0" d="M110.552,57.294c-0.803,0.531-1.188,1.943-0.755,2.819c0.806,1.631,4.314,1.134,5.026,1.033
	c2.116-0.3,3.655-1.25,4.479-1.852c-0.513-1.132-1.401-2.74-2.921-4.307c-1.341-1.383-2.77-2.855-4.079-2.446
	c-1.229,0.385-2.043,2.334-1.529,3.27c0.37,0.674,1.408,0.785,1.361,1.033C112.09,57.074,111.218,56.853,110.552,57.294z"/>
<g>
	<path class="st0" d="M30.823,84.478c-0.511,0.607-1.227,1.36-1.628,1.26c-0.533-0.133-0.159-1.688-0.501-1.758
		c-0.14-0.029-0.425,0.187-1.08,1.491"/>
	<path class="st0" d="M31.736,85.463c0.371-0.206,1.186-0.481,1.784-0.285c0.8,0.262,1.227,1.372,0.267,1.677
		c-0.734,0.233-2.163-0.039-2.55-0.482C30.865,85.946,31.61,85.533,31.736,85.463z"/>
	<path class="st0" d="M25.508,87.251c0.733-0.022,1.918-0.091,1.905-0.352c-0.008-0.168-0.513-0.414-0.859-0.406
		c-0.805,0.019-1.094,1.421-0.388,1.7c0.437,0.172,1.401-0.028,1.353-0.296c-0.034-0.185-0.555-0.42-1.268-0.549"/>
	<path class="st0" d="M30.344,88.13c-0.439-0.175-0.879-0.351-1.318-0.526c-0.109,0.329-0.217,0.658-0.326,0.988"/>
	<path class="st0" d="M32.644,89.12c0.225-0.15,0.304-0.348,0.139-0.503c-0.285-0.268-1.267-0.381-1.59-0.151
		c-0.189,0.135-0.171,0.399,0.129,0.57c0.282,0.16,0.707,0.178,0.963,0.148c0.806-0.094,0.93-0.778,0.892-0.789
		c-0.024-0.007-0.205,0.24-0.841,1.259"/>
	<path class="st0" d="M34.743,88.491c-0.016,0.091-0.032,0.182-0.047,0.273"/>
	<path class="st0" d="M34.55,89.068c-0.007,0.156-0.048,0.367-0.196,0.593c-0.13,0.199-0.303,0.348-0.45,0.452"/>
	<path class="st0" d="M35.7,90.713c0.183-0.961,0.427-1.639,0.753-1.604c0.554,0.058,0.972,2.124,1.472,2.172
		c0.23,0.022,0.449-0.386,0.61-1.613"/>
</g>
<path class="st0" d="M98.874,105.703c2.455,3.827,6.388,5.381,6.388,5.381c3.106,1.228,5.812,0.772,8.15,0.378
	c2.378-0.401,4.431-1.209,4.374-1.605c-0.046-0.32-1.465-0.347-1.479-0.692c-0.012-0.3,1.057-0.414,1.133-0.913
	c0.053-0.345-0.417-0.578-0.629-0.85c-1.064-1.358,3.308-4.945,3.336-9.346c0.002-0.277-0.012-3.087-1.573-3.808
	c-0.891-0.411-1.926,0.024-2.392,0.22c-1.694,0.713-2.416,2.247-2.612,2.706c-0.132-0.276-0.677-1.334-1.941-1.867
	c-1.549-0.653-2.945,0.001-3.157,0.105c0.686-2.355,0.406-4.349-0.7-5.063c-0.794-0.513-1.811-0.234-2.195-0.129
	c-4.547,1.246-6.242,9.809-5.979,10.857c0.012,0.05,0.073,0.258-0.031,0.378c-0.27,0.309-1.28-0.379-1.542-0.094
	c-0.208,0.226,0.344,0.755,0.126,1.259c-0.214,0.495-0.919,0.381-1.007,0.755c-0.083,0.354,0.511,0.616,1.29,1.668
	C98.669,105.36,98.793,105.576,98.874,105.703z"/>
<path class="st0" d="M99.839,101.35c1.732-0.242,5.122-0.483,9.063,0.839c3.954,1.327,6.517,3.573,7.752,4.813"/>
<path class="st0" d="M104.497,98.874c0.657-1.091,1.686-1.399,2.14-1.091c0.334,0.227,0.415,0.828,0.294,1.427"/>
<path class="st0" d="M112.301,100.804c0.218-0.708,0.999-1.021,1.552-0.755c0.508,0.244,0.765,0.949,0.462,1.552"/>
<path class="st0" d="M106.914,101.895c-0.241,0.725,0.173,1.457,0.755,1.621c0.626,0.176,1.415-0.312,1.51-1.133"/>
<path class="st0" d="M104.685,104.874c0.483,0.544,1.049,1.002,1.552,0.881c0.764-0.184,1.081-1.628,1.175-1.594
	c0.101,0.036-0.661,1.545-0.147,2.224c0.406,0.537,1.493,0.401,2.329,0.21"/>
<path class="st0" d="M110.58,94.83c0.732-0.814,0.938-0.935,0.991-0.897c0.081,0.058-0.213,0.466-0.063,0.661
	c0.195,0.252,0.959-0.079,0.991,0c0.019,0.048-0.238,0.218-1.077,0.634"/>
<g>
	<path class="st0" d="M3.894,29.086c-0.232,0.168-0.653,0.53-0.839,1.119c-0.318,1.007,0.114,2.471,1.145,2.704
		c0.687,0.155,1.5-0.268,1.986-1.044"/>
	<path class="st0" d="M4.838,27.771c0.501-0.828,3.63-0.429,3.932,0.717c0.164,0.622-0.494,1.507-1.306,1.744
		c-1.049,0.305-1.975-0.584-2.349-1.223C4.955,28.736,4.61,28.149,4.838,27.771z"/>
	<path class="st0" d="M9.653,23.802c-0.773,0.342-1.29,1.041-1.285,1.767c0.008,1.167,1.361,2.116,2.344,1.824
		c0.575-0.171,0.877-0.722,0.979-0.935"/>
	<path class="st0" d="M9.059,20.816c3.259,3.786,4.177,4.879,4.162,4.893c-0.015,0.013-1.067-0.853-1.303-2.176
		c-0.236-1.323,0.453-2.494,0.56-2.469c0.119,0.029-0.542,1.554,0.134,2.39c0.483,0.597,1.475,0.628,2.382,0.511"/>
	<path class="st0" d="M16.218,17.74c-0.777-0.16-1.468,0.229-1.631,0.773c-0.139,0.464,0.107,1.038,0.511,1.27
		c0.648,0.371,1.284-0.379,2.028-0.017c0.443,0.215,0.696,0.714,0.728,1.125c0.057,0.756-0.61,1.573-1.666,1.816"/>
	<path class="st0" d="M24.524,12.679c0.581-0.774,3.655-0.065,3.841,1.105c0.101,0.635-0.641,1.451-1.473,1.605
		c-1.075,0.199-1.907-0.778-2.216-1.45C24.544,13.651,24.259,13.032,24.524,12.679z"/>
	<path class="st0" d="M29.454,9.131c-0.804,0.264-1.387,0.907-1.454,1.63c-0.108,1.162,1.143,2.241,2.15,2.048
		c0.589-0.113,0.944-0.631,1.067-0.833"/>
	<path class="st0" d="M29.416,6.179c2.865,4.091,3.67,5.271,3.654,5.283c-0.016,0.012-0.977-0.955-1.079-2.295
		c-0.103-1.34,0.7-2.437,0.803-2.401c0.116,0.04-0.694,1.492-0.104,2.391c0.421,0.642,1.405,0.771,2.319,0.746"/>
	<path class="st0" d="M36.846,3.831c-0.757-0.237-1.483,0.082-1.699,0.606c-0.184,0.448,0.003,1.044,0.382,1.314
		c0.608,0.434,1.315-0.249,2.02,0.185c0.419,0.258,0.622,0.78,0.612,1.192c-0.018,0.758-0.764,1.504-1.838,1.641"/>
	<path class="st0" d="M22.678,18.92c-2.086-1.604-2.971-3.503-2.409-4.514c0.543-0.977,2.479-1.205,2.765-0.737
		c0.31,0.507-1.432,1.647-1.122,2.499c0.253,0.693,1.736,0.834,3.408,0.768"/>
	<path class="st0" d="M20.239,20.339c-0.142-0.145-0.283-0.29-0.425-0.434"/>
</g>
<path class="st0" d="M3.146,50.066c-0.536-1.914,6.009-4.7,14.161-8.171c0.477-0.203,1.572-0.653,2.266-0.168
	c0.604,0.423,0.615,1.353,0.629,1.636c0.189,3.646,6.604,6.713,6.042,9.357c-0.38,1.789-3.536,1.403-8.014,4.448
	c-2.14,1.455-3.631,3.048-4.573,4.196c-4.706-3.86-7.806-7.109-8.559-8.182c-0.552-0.786-1.133-1.72-1.133-1.72
	C3.446,50.626,3.186,50.208,3.146,50.066z"/>
<path class="st0" d="M5.643,47.979c3.315,3.58,6.629,7.161,9.944,10.741"/>
<path class="st0" d="M7.867,49.615c4-2.112,8-4.224,12-6.336"/>
<g>
	<path class="st0" d="M92.392,50.06c-0.627-1.811-1.254-3.621-1.881-5.432"/>
	<path class="st0" d="M87.357,51.804c1.389-1.162,2.777-2.324,4.166-3.485c1.949-0.098,3.899-0.196,5.848-0.294"/>
	<path class="st0" d="M88.626,59.411c0.988,0.281,3.73,0.921,6.932-0.181c3.514-1.209,5.341-3.745,5.886-4.57
		c0.6,1.732,1.2,3.463,1.799,5.195c-0.25,0.425-1.964,3.226-5.886,4.57c-3.572,1.224-6.398,0.356-6.932,0.181
		C89.825,62.874,89.226,61.142,88.626,59.411z"/>
	<path class="st0" d="M88.266,59.226c1.924-1.347,3.848-2.695,5.773-4.042c2.543-0.303,5.085-0.607,7.628-0.91"/>
	<path class="st0" d="M87.651,52.012c1.788,0.121,3.577,0.241,5.365,0.362c1.404-1.33,2.809-2.66,4.213-3.99
		c0.6,1.732,1.2,3.463,1.799,5.195c-0.161,0.394-1.274,2.987-4.213,3.99c-2.677,0.914-4.937-0.15-5.365-0.362
		C88.85,55.475,88.25,53.743,87.651,52.012z"/>
	<path class="st0" d="M92.599,60.145c0.541,1.545,1.081,3.089,1.622,4.634"/>
	<path class="st0" d="M99.405,57.488c0.67,1.405,1.34,2.811,2.01,4.216"/>
	<path class="st0" d="M93.075,52.721c0.625,1.515,1.25,3.031,1.874,4.546"/>
</g>
<g>
	<path class="st0" d="M36.855,118.687c2.376,2.829,4.752,5.657,7.127,8.486"/>
	<path class="st0" d="M39.297,116.353c2.478,2.625,4.957,5.25,7.435,7.875"/>
	<path class="st0" d="M23.481,105.311c0.932-1.145,2.839-1.693,3.882-0.808c0.816,0.692,0.816,2.017,0.482,2.882
		c-0.679,1.756-3.193,2.789-4.364,1.909C22.51,108.564,22.483,106.537,23.481,105.311z"/>
	<path class="st0" d="M26.946,110.268c-0.091,1.379,2.145,1.421,5.072,4.643c1.669,1.837,2.299,3.306,3.72,3.348
		c1.053,0.031,1.952-0.751,2.044-0.834c0.107-0.096,0.962-0.875,1.065-1.898c0.126-1.257-0.975-1.948-4.689-5.396
		c-1.908-1.771-2.244-2.171-3.084-2.292C29.247,107.578,27.035,108.925,26.946,110.268z"/>
	<path class="st0" d="M25.961,103.785c0.125-0.429,0.577-0.663,0.968-0.537c0.351,0.113,0.578,0.493,0.504,0.885"/>
	<path class="st0" d="M27.458,103.115c0.143-0.164,0.684-0.747,1.511-0.787c0.238-0.012,0.446,0.024,0.613,0.072"/>
	<path class="st0" d="M27.011,102.681c0.082-0.209,0.276-0.618,0.697-0.974c0.35-0.295,0.704-0.425,0.912-0.484"/>
	<path class="st0" d="M26.564,102.8c-0.081-0.206-0.213-0.633-0.088-1.123c0.184-0.722,0.848-1.281,1.694-1.442"/>
	<path class="st0" d="M27.185,110.999c1.265,1.247,2.749,2.861,4.254,4.854c1.487,1.97,2.608,3.798,3.437,5.317"/>
	<path class="st0" d="M30.542,107.809c0.832,0.168,1.734,0.41,2.688,0.757c4.259,1.55,7.303,4.37,9.021,6.249"/>
</g>
<g>
	<path class="st0" d="M5.591,6.544C4.978,6.513,4.889,8.504,3.92,8.779c-0.669,0.19-1.647-0.47-1.754-1.171
		C2.134,7.393,2.185,7.191,2.401,6.775C3.033,5.559,3.875,4.82,4.072,4.651c0.96-0.826,1.498-1.289,2.121-1.173
		C6.579,3.55,6.518,3.754,7.363,4.44c1.056,0.855,1.748,1.02,1.956,1.762c0.056,0.199,0.058,0.374,0.059,0.473
		c0.003,0.548-0.216,0.97-0.505,1.434c-0.065,0.105-1.08,1.731-1.641,2.412c-0.074,0.09-0.275,0.328-0.257,0.644
		c0,0,0.002,0.026,0.005,0.053c0.07,0.506,1.003,0.977,1.003,0.977c1.163,0.587,1.744,0.881,1.895,1.243
		c0.357,0.852-0.834,2.585-1.981,2.57c-0.33-0.004-0.713-0.292-1.466-0.868c-1.013-0.774-1.519-1.16-1.781-1.738
		c-0.377-0.832-0.239-1.637-0.184-1.938c0.195-1.063,0.842-1.827,1.328-2.403C6.51,8.214,7.16,7.793,7.023,7.462
		C6.958,7.305,6.785,7.338,6.264,7.01C5.754,6.689,5.752,6.552,5.591,6.544z"/>
	<path class="st0" d="M13.169,11.133c0.609,0.073,0.834-1.907,1.82-2.116c0.681-0.144,1.611,0.581,1.67,1.288
		c0.018,0.217-0.047,0.415-0.291,0.815c-0.714,1.17-1.604,1.849-1.812,2.005c-1.014,0.759-1.582,1.184-2.196,1.026
		c-0.38-0.098-0.305-0.298-1.102-1.04c-0.995-0.925-1.674-1.137-1.831-1.892c-0.042-0.203-0.032-0.377-0.026-0.476
		c0.034-0.547,0.282-0.953,0.601-1.396c0.072-0.1,1.196-1.653,1.802-2.295c0.08-0.085,0.297-0.308,0.3-0.625
		c0,0,0-0.026-0.002-0.053c-0.035-0.509-0.934-1.043-0.934-1.043c-1.12-0.665-1.68-0.998-1.806-1.369
		C9.064,3.087,10.37,1.44,11.513,1.533c0.328,0.027,0.691,0.34,1.404,0.966c0.957,0.841,1.436,1.261,1.658,1.856
		c0.319,0.856,0.127,1.65,0.051,1.946c-0.268,1.047-0.964,1.766-1.489,2.307c-0.772,0.796-1.449,1.172-1.335,1.511
		c0.054,0.161,0.229,0.14,0.726,0.503C13.016,10.977,13.009,11.114,13.169,11.133z"/>
	<path class="st0" d="M3.416,7.19c-0.084-0.24,0.529-0.554,0.742-0.405C4.314,6.894,4.389,7.347,4.079,7.45
		C3.829,7.532,3.47,7.343,3.416,7.19z"/>
	<path class="st0" d="M14.66,10.718c-0.064-0.174,0.379-0.392,0.535-0.283c0.115,0.08,0.174,0.407-0.05,0.477
		C14.965,10.969,14.701,10.829,14.66,10.718z"/>
</g>
<path class="st0" d="M44.916,54.734c5.527,2.175,7.515,4.91,8.308,7.007c1.663,4.397-1.049,8.305,1.301,11.497
	c1.496,2.031,4.175,2.595,6.084,2.769"/>
<path class="st0" d="M3.797,98.245c2.867,2.112,5.734,4.224,8.601,6.336"/>
<path class="st0" d="M69.287,122.774c-1.559,0.411-3.119,0.821-4.678,1.232c3.733-6.356,7.466-12.712,11.2-19.068
	c0.752,5.376,1.504,10.752,2.256,16.128c-0.925,0.404-1.849,0.808-2.774,1.211c-0.51-2.752-1.021-5.503-1.531-8.255
	C72.269,116.94,70.778,119.857,69.287,122.774z"/>
<path class="st0" d="M69.633,122.855c1.63,1.593,3.26,3.186,4.89,4.78c0.191-2.136,0.382-4.273,0.572-6.409"/>
<path class="st0" d="M79.552,82.741c5.014-0.93,10.028-1.86,15.042-2.79"/>
<path class="st0" d="M114.734,75.965c1.455,0,2.909,0,4.364,0"/>
<path class="st0" d="M94.762,72.273c0.671,0.112,1.343,0.224,2.014,0.336"/>
<path class="st0" d="M62.497,9.524c0.307,1.552,0.613,3.105,0.92,4.657c3.317-0.226,6.635-0.451,9.952-0.677"/>
<path class="st0" d="M58.846,4.133C63.516,2.059,71.37,1.739,75,6.944c2.087,2.992,2.357,7.207,0.797,10.573
	c-1.487,3.21-4.184,4.669-5.287,5.245c-4.06,2.122-10.826,2.87-15.189-1.385c-2.434-2.374-4.376-6.553-3.105-10.657
	C53.525,6.495,57.5,4.73,58.846,4.133z"/>
<path class="st0" d="M62.58,4.385c-0.056,0.503-0.112,1.007-0.168,1.51"/>
<path class="st0" d="M74.79,13.406c0.266-0.182,0.531-0.364,0.797-0.545"/>
<path class="st0" d="M64.846,21.587c-0.028,0.35-0.056,0.699-0.084,1.049"/>
<path class="st0" d="M52.888,14.287c0.503-0.042,1.007-0.084,1.51-0.126"/>
<path class="st0" d="M75.126,42.902c1.757-1.072,3.975,0.528,4.28,0.755c1.087,0.811,2.398,2.492,1.93,3.692
	c-0.714,1.832-5.605,2.646-7.133,0.42C73.271,46.412,73.549,43.864,75.126,42.902z"/>
<path class="st0" d="M93.084,110.832c-4.127,11.406-6.969,14.755-8.979,14.517c-2.679-0.317-4.595-7.092-3.189-8.14
	c1.503-1.121,5.324,5.412,12.881,6.42c6.451,0.86,12.981-2.658,12.797-3.566c-0.206-1.019-9.373-1.213-10.49,1.846
	c-0.584,1.602,1.14,3.816,2.559,4.993c6.658,5.522,21.177,0.314,21.056-1.893c-0.083-1.513-7.125-3.138-8.217-1.464
	c-0.642,0.985,0.597,3.387,2.392,4.112c2.419,0.977,5.272-1.326,6.378-3.566c1.689-3.423-0.583-6.938-0.713-7.133"/>
<path class="st0" d="M93.084-16.816C88.957-5.41,86.114-2.061,84.105-2.299c-2.679-0.317-4.595-7.092-3.189-8.14
	c1.503-1.121,5.324,5.412,12.881,6.42c6.451,0.86,12.981-2.658,12.797-3.566c-0.206-1.019-9.373-1.213-10.49,1.846
	c-0.584,1.602,1.14,3.816,2.559,4.993c6.658,5.522,21.177,0.314,21.056-1.893c-0.083-1.513-7.125-3.138-8.217-1.464
	c-0.642,0.985,0.597,3.387,2.392,4.112c2.419,0.977,5.272-1.326,6.378-3.566c1.689-3.423-0.583-6.938-0.713-7.133"/>
<path class="st0" d="M101.769,34.301c-2.012,0.295-5.084-0.311-5.664-2.266c-0.33-1.111,0.15-2.642,1.133-3.147
	c1.23-0.631,2.366,0.799,3.65,0.378c1.492-0.489,1.702-2.992,2.266-5.664c0.812-3.85,2.018-9.567,5.287-11.203
	c2.458-1.23,5.729,0.025,7.552,1.385c4.315,3.217,3.831,9.489,3.524,13.469c-0.262,3.399-0.604,6.585-3.147,8.434
	c-3.038,2.209-8.188,1.701-9.189-0.378c-0.569-1.181,0.067-3.149,1.259-3.776c1.684-0.886,3.648,1.345,5.161,0.378
	c0.894-0.572,1.146-1.951,0.881-2.895c-0.566-2.016-3.721-2.874-5.664-2.014c-1.312,0.58-2.024,1.941-2.392,2.643
	c-0.69,1.319-0.4,1.746-1.007,2.643C104.31,33.928,102.161,34.243,101.769,34.301z"/>
<path class="st0" d="M113.224,18.692c-0.578-2.608-4.934-3.048-5.916-3.147c-1.326-0.134-3.546-0.358-4.909,1.133
	c-0.572,0.626-1.25,1.835-0.881,2.895c0.377,1.082,1.976,1.491,5.161,2.266c3.94,0.958,4.676,0.606,5.035,0.378
	C112.829,21.508,113.507,19.968,113.224,18.692z"/>
<path class="st0" d="M118.985,18.116c1.426-0.135,2.257,0.289,2.672,0.577c1.62,1.123,1.627,3.439,1.636,6.168
	c0.007,2.277,0.011,3.437-0.881,4.154c-1.427,1.146-3.818,0.096-4.028,0"/>
<path class="st0" d="M116.685,5.35c-1.574,0.601-2.902,1.284-2.832,1.888c0.099,0.856,2.939,0.986,2.961,1.639
	c0.012,0.346-0.768,0.799-3.465,1.382"/>
<path class="st0" d="M119.706,6.231c-0.479,2.756-0.38,4.843,0.252,5.035c0.616,0.187,1.807-1.406,2.895-3.713"/>
<path class="st0" d="M126,8.056c-1.538-0.284-1.984-0.144-2.077,0.063c-0.28,0.623,2.541,2.052,2.266,3.084
	c-0.166,0.622-1.391,0.855-2.58,0.944"/>
<path class="st0" d="M103.594,6.294c-2.832,6.587-5.664,13.175-8.497,19.762"/>
<path class="st0" d="M5.224,121.657"/>
<path class="st0" d="M1.029,127.353c1.259-0.231,2.517-0.462,3.776-0.692"/>
<path class="st1" d="M128.832,85.531c-1.152,0.676-2.508,1.742-2.769,3.273c-0.553,3.241,4.361,5.293,3.902,8.559
	c-0.361,2.565-3.549,2.425-4.28,5.161c-0.916,3.429,3.566,5.61,4.406,10.448c0.399,2.3,0.06,5.691-3.399,10.322"/>
<path class="st1" d="M0.94,85.527c-1.152,0.676-2.508,1.742-2.769,3.273c-0.553,3.241,4.361,5.293,3.902,8.559
	c-0.361,2.565-3.549,2.425-4.28,5.161c-0.916,3.429,3.566,5.61,4.406,10.448c0.399,2.3,0.06,5.691-3.399,10.322"/>
<path class="st1" d="M125.979,58.678c1.453,0.214,1.885,10.778,0.504,11.077c-0.825,0.178-2.913-3.171-2.517-6.713
	C124.189,61.036,125.253,58.572,125.979,58.678z"/>
</svg>
