<svg xmlns="http://www.w3.org/2000/svg" xmlns:xlink="http://www.w3.org/1999/xlink" viewBox="0 0 240 48"><defs><style>.a{opacity:0.75;}.b,.c,.d,.e,.f,.g,.h{fill:none;stroke-linecap:round;stroke-linejoin:round;stroke-width:4px;}.b{stroke:url(#a);}.c{stroke:url(#b);}.d{stroke:url(#c);}.e{stroke:url(#d);}.f{stroke:url(#e);}.g{stroke:url(#f);}.h{stroke:url(#g);}</style><linearGradient id="a" x1="25.598" y1="32.934" x2="41.72" y2="27.066" gradientUnits="userSpaceOnUse"><stop offset="0" stop-color="#1f40ae"/><stop offset="0.169" stop-color="#3c5cc4"/><stop offset="0.407" stop-color="#5f7ddd"/><stop offset="0.632" stop-color="#7895f0"/><stop offset="0.835" stop-color="#88a3fb"/><stop offset="1" stop-color="#8da8ff"/></linearGradient><linearGradient id="b" x1="25.598" y1="24.934" x2="41.72" y2="19.066" xlink:href="#a"/><linearGradient id="c" x1="25.598" y1="16.934" x2="41.72" y2="11.066" xlink:href="#a"/><linearGradient id="d" x1="30.592" y1="27.664" x2="54.81" y2="18.849" xlink:href="#a"/><linearGradient id="e" x1="27.044" y1="21.915" x2="45.476" y2="15.206" xlink:href="#a"/><linearGradient id="f" x1="27.044" y1="29.915" x2="45.476" y2="23.206" xlink:href="#a"/><linearGradient id="g" x1="27.687" y1="35.681" x2="44.833" y2="29.44" xlink:href="#a"/></defs><path d="M78.315,27.917H73l-1.014,2.452H69.272l5.1-11.446H76.99l5.119,11.446h-2.78Zm-.834-2.012-1.815-4.382-1.815,4.382Z"/><path d="M90.9,19.43a3.787,3.787,0,0,1,2.33,3.646,3.979,3.979,0,0,1-.6,2.2A3.869,3.869,0,0,1,90.9,26.715a6.459,6.459,0,0,1-2.641.5H85.951v3.156H83.3V18.923h4.955A6.359,6.359,0,0,1,90.9,19.43Zm-.973,5.11a1.8,1.8,0,0,0,.621-1.464,1.815,1.815,0,0,0-.621-1.48,2.787,2.787,0,0,0-1.815-.515H85.951v3.974H88.11A2.787,2.787,0,0,0,89.925,24.54Z"/><path d="M97.169,21.081H93.506V18.923h9.975v2.158H99.818v9.288H97.169Z"/><path d="M111.9,21.081h-3.663V18.923h9.975v2.158h-3.663v9.288H111.9Z"/><path class="a" d="M119.391,19.937a1.386,1.386,0,0,1,0-2.028,1.618,1.618,0,0,1,1.145-.409,1.665,1.665,0,0,1,1.145.392,1.26,1.26,0,0,1,.441.982,1.392,1.392,0,0,1-.441,1.055,1.8,1.8,0,0,1-2.29.008Zm-.13,1.635h2.55v8.8h-2.55Z"/><path class="a" d="M138.074,22.414a3.967,3.967,0,0,1,.973,2.919v5.036H136.5V25.725a2.381,2.381,0,0,0-.434-1.561,1.521,1.521,0,0,0-1.234-.516,1.82,1.82,0,0,0-1.423.581,2.5,2.5,0,0,0-.523,1.725v4.415h-2.551V25.725q0-2.076-1.668-2.077a1.8,1.8,0,0,0-1.406.581,2.5,2.5,0,0,0-.524,1.725v4.415h-2.55v-8.8h2.436v1.014a3.228,3.228,0,0,1,1.2-.851,4.049,4.049,0,0,1,1.561-.294,3.789,3.789,0,0,1,1.685.368,2.986,2.986,0,0,1,1.21,1.071,3.607,3.607,0,0,1,1.365-1.063,4.306,4.306,0,0,1,1.807-.376A3.547,3.547,0,0,1,138.074,22.414Z"/><path class="a" d="M150,26.69h-6.655a2.073,2.073,0,0,0,.85,1.292,2.818,2.818,0,0,0,1.668.474,3.39,3.39,0,0,0,1.219-.2,2.967,2.967,0,0,0,.989-.646l1.357,1.472A4.562,4.562,0,0,1,145.8,30.5a5.744,5.744,0,0,1-2.633-.58,4.254,4.254,0,0,1-1.766-1.611,4.44,4.44,0,0,1-.621-2.338,4.5,4.5,0,0,1,.613-2.331,4.3,4.3,0,0,1,1.684-1.619,4.958,4.958,0,0,1,2.4-.58,4.9,4.9,0,0,1,2.338.556,4.061,4.061,0,0,1,1.644,1.594,4.767,4.767,0,0,1,.6,2.412Q150.052,26.053,150,26.69Zm-5.968-2.829a2.085,2.085,0,0,0-.72,1.341h4.334a2.113,2.113,0,0,0-.72-1.333,2.152,2.152,0,0,0-1.439-.5A2.2,2.2,0,0,0,144.034,23.861Z"/><path d="M152.766,21.081H149.1V18.923h9.975v2.158h-3.663v9.288h-2.649Z"/><path class="a" d="M166.567,22.414a3.72,3.72,0,0,1,1.1,2.935v5.02h-2.388V29.274a2.842,2.842,0,0,1-2.681,1.226,4.161,4.161,0,0,1-1.758-.343,2.614,2.614,0,0,1-1.136-.949,2.464,2.464,0,0,1-.393-1.373,2.293,2.293,0,0,1,.924-1.93,4.713,4.713,0,0,1,2.853-.7h2.028a1.627,1.627,0,0,0-.507-1.284,2.237,2.237,0,0,0-1.521-.449,4.441,4.441,0,0,0-1.381.22,3.66,3.66,0,0,0-1.153.6l-.916-1.782a5.524,5.524,0,0,1,1.725-.785,7.745,7.745,0,0,1,2.069-.278A4.575,4.575,0,0,1,166.567,22.414Zm-2.174,6.067a1.661,1.661,0,0,0,.719-.892v-.9h-1.75q-1.569,0-1.57,1.03a.917.917,0,0,0,.385.777,1.727,1.727,0,0,0,1.054.286A2.222,2.222,0,0,0,164.393,28.481Z"/><path class="a" d="M177.4,22.005a4.058,4.058,0,0,1,1.578,1.586,5.235,5.235,0,0,1,0,4.759,4.058,4.058,0,0,1-1.578,1.586,4.487,4.487,0,0,1-2.232.564,3.383,3.383,0,0,1-2.764-1.145v1.014h-2.436V18.236h2.55V22.5a3.4,3.4,0,0,1,2.65-1.063A4.487,4.487,0,0,1,177.4,22.005Zm-1.063,5.74a2.818,2.818,0,0,0,0-3.549,2.291,2.291,0,0,0-3.222,0,2.818,2.818,0,0,0,0,3.549,2.291,2.291,0,0,0,3.222,0Z"/><path class="a" d="M181.251,18.236H183.8V30.369h-2.551Z"/><path class="a" d="M194.742,26.69h-6.656a2.074,2.074,0,0,0,.851,1.292,2.818,2.818,0,0,0,1.668.474,3.38,3.38,0,0,0,1.218-.2,2.967,2.967,0,0,0,.989-.646l1.358,1.472a4.564,4.564,0,0,1-3.631,1.422,5.739,5.739,0,0,1-2.632-.58,4.248,4.248,0,0,1-1.766-1.611,4.431,4.431,0,0,1-.622-2.338,4.506,4.506,0,0,1,.613-2.331,4.3,4.3,0,0,1,1.685-1.619A5.217,5.217,0,0,1,192.551,22a4.065,4.065,0,0,1,1.643,1.594,4.757,4.757,0,0,1,.6,2.412Q194.791,26.053,194.742,26.69Zm-5.969-2.829a2.089,2.089,0,0,0-.719,1.341h4.333a2.112,2.112,0,0,0-.719-1.333,2.156,2.156,0,0,0-1.439-.5A2.2,2.2,0,0,0,188.773,23.861Z"/><line class="b" x1="26.659" y1="30" x2="40.659" y2="30"/><line class="c" x1="26.659" y1="22" x2="40.659" y2="22"/><line class="d" x1="26.659" y1="14" x2="40.659" y2="14"/><path class="e" d="M38.409,38h8.25a4,4,0,0,0,4-4V14a4,4,0,0,0-4-4h-12a4,4,0,0,0-4,4v8"/><path class="f" d="M42.909,14h-8.25a4,4,0,0,0-4,4v8"/><path class="g" d="M42.909,22h-8.25a4,4,0,0,0-4,4v8"/><path class="h" d="M30.659,38V34a4,4,0,0,1,4-4h8.25"/></svg>